<svg width="40" height="32" viewBox="0 0 40 32" fill="none" xmlns="http://www.w3.org/2000/svg">
<path fill-rule="evenodd" clip-rule="evenodd" d="M16.2941 11.7076C16.1985 11.6153 16.1224 11.505 16.07 11.383C16.0175 11.261 15.99 11.1298 15.9888 10.997C15.9877 10.8642 16.013 10.7325 16.0632 10.6096C16.1135 10.4867 16.1878 10.3751 16.2817 10.2812C16.3756 10.1873 16.4872 10.113 16.6101 10.0627C16.733 10.0125 16.8647 9.98717 16.9975 9.98832C17.1302 9.98947 17.2615 10.0171 17.3835 10.0695C17.5055 10.1219 17.6158 10.1981 17.7081 10.2936L22.7081 15.2936C22.8955 15.4811 23.0008 15.7354 23.0008 16.0006C23.0008 16.2657 22.8955 16.52 22.7081 16.7076L17.7081 21.7086C17.5205 21.8962 17.2662 22.0017 17.0009 22.0018C16.7356 22.0019 16.4812 21.8966 16.2936 21.7091C16.1059 21.5216 16.0004 21.2672 16.0004 21.0019C16.0003 20.7367 16.1055 20.4822 16.2931 20.2946L20.5871 16.0006L16.2941 11.7076Z" fill="#3A3A47"/>
</svg>
