<svg width="40" height="32" viewBox="0 0 40 32" fill="none" xmlns="http://www.w3.org/2000/svg">
<path fill-rule="evenodd" clip-rule="evenodd" d="M22.707 20.2934C22.8025 20.3857 22.8787 20.496 22.9311 20.618C22.9835 20.74 23.0111 20.8713 23.0123 21.004C23.0134 21.1368 22.9881 21.2685 22.9379 21.3914C22.8876 21.5143 22.8133 21.6259 22.7194 21.7198C22.6255 21.8137 22.5139 21.888 22.391 21.9383C22.2681 21.9885 22.1364 22.0138 22.0036 22.0127C21.8709 22.0115 21.7396 21.9839 21.6176 21.9315C21.4956 21.8791 21.3853 21.8029 21.293 21.7074L16.293 16.7074C16.1056 16.5199 16.0002 16.2656 16.0002 16.0004C16.0002 15.7353 16.1056 15.481 16.293 15.2934L21.294 10.2924C21.4826 10.1103 21.7352 10.0095 21.9974 10.0118C22.2596 10.014 22.5104 10.1192 22.6958 10.3046C22.8813 10.49 22.9864 10.7408 22.9887 11.003C22.991 11.2652 22.8902 11.5178 22.708 11.7064L18.414 16.0004L22.707 20.2934Z" fill="#3A3A47"/>
</svg>
