<svg width="41" height="32" viewBox="0 0 41 32" fill="none" xmlns="http://www.w3.org/2000/svg">
<path fill-rule="evenodd" clip-rule="evenodd" d="M19.7721 7.58533C20.5609 6.88627 21.3689 6.20121 22.1955 5.53066C25.7305 2.70133 33.9888 1.76533 36.3371 3.64533C38.6871 5.52533 37.5105 12.1333 33.9805 14.9587C33.3938 15.428 32.4788 16.12 31.4105 16.896L32.0771 20.6293C32.1438 21.0733 32.1005 21.4787 31.9488 21.8427C31.7205 22.3907 31.2705 22.7827 31.1338 22.8907C30.9988 23 29.9721 23.6587 28.8688 23.5493C28.1338 23.4773 27.5321 23.124 27.0621 22.4907L25.7488 20.7373C25.185 21.0878 24.6052 21.4213 24.0105 21.7373C24.0105 21.7373 22.8955 22.3013 21.7838 22.208C21.0421 22.1453 20.3888 21.8707 19.8238 21.3853L14.1538 16.8493C13.5205 16.2973 13.1705 15.7693 13.1055 15.2653C13.0071 14.5093 13.7205 13.5053 13.7205 13.5053C14.0555 13.0933 14.4838 12.6213 14.9705 12.1147L12.7805 11.064C11.9871 10.6893 11.5471 10.2067 11.4555 9.61866C11.3188 8.73599 12.1421 7.91466 12.2788 7.80533C12.4138 7.69866 12.9038 7.33733 13.5888 7.15466C14.0455 7.03333 14.5505 6.99866 15.1055 7.05199L19.7721 7.58533ZM30.8955 10.7693C31.7795 10.7693 32.6274 10.4884 33.2525 9.98828C33.8776 9.48818 34.2288 8.8099 34.2288 8.10266C34.2288 7.39542 33.8776 6.71714 33.2525 6.21704C32.6274 5.71695 31.7795 5.43599 30.8955 5.43599C30.0114 5.43599 29.1636 5.71695 28.5384 6.21704C27.9133 6.71714 27.5621 7.39542 27.5621 8.10266C27.5621 8.8099 27.9133 9.48818 28.5384 9.98828C29.1636 10.4884 30.0114 10.7693 30.8955 10.7693V10.7693ZM12.2655 21.1787C13.0488 20.5493 13.8355 20.5493 14.6221 21.1787C15.4071 21.8067 15.4071 22.4347 14.6221 23.064L10.5988 26.2827C9.81212 26.912 9.02712 26.912 8.24212 26.284C7.45879 25.6573 7.45879 25.028 8.24212 24.3973L12.2655 21.1787V21.1787ZM15.5988 23.8453C16.3821 23.216 17.1688 23.216 17.9555 23.8453C18.7405 24.4733 18.7405 25.1013 17.9555 25.7307L13.9321 28.9493C13.1455 29.5787 12.3605 29.5787 11.5755 28.9507C10.7921 28.324 10.7921 27.6947 11.5755 27.064L15.5988 23.8453V23.8453ZM8.93212 18.512C9.71546 17.8827 10.5021 17.8827 11.2888 18.512C12.0738 19.14 12.0738 19.768 11.2888 20.3973L7.26546 23.616C6.47879 24.2453 5.69379 24.2453 4.90879 23.6173C4.12546 22.9907 4.12546 22.3613 4.90879 21.7307L8.93212 18.512V18.512Z" fill="#40A42B"/>
</svg>
