<svg width="31" height="31" viewBox="0 0 31 31" fill="none" xmlns="http://www.w3.org/2000/svg">
<path d="M2.61328 15.5707C2.61328 8.58475 8.25406 2.92188 15.2128 2.92188C22.1714 2.92188 27.8122 8.58475 27.8122 15.5707C27.8122 22.5554 22.1714 28.2195 15.2128 28.2195C8.25406 28.2195 2.61328 22.5554 2.61328 15.5707ZM5.13318 15.5707C5.13318 18.2544 6.19513 20.8282 8.08541 22.7259C9.9757 24.6236 12.5395 25.6897 15.2128 25.6897C17.886 25.6897 20.4498 24.6236 22.3401 22.7259C24.2304 20.8282 25.2923 18.2544 25.2923 15.5707C25.2923 12.8869 24.2304 10.3131 22.3401 8.41544C20.4498 6.51775 17.886 5.45164 15.2128 5.45164C12.5395 5.45164 9.9757 6.51775 8.08541 8.41544C6.19513 10.3131 5.13318 12.8869 5.13318 15.5707ZM11.1267 9.68013L15.2128 13.7821L19.2988 9.68013C19.8821 9.07299 20.4755 9.07299 21.0803 9.68013C21.6851 10.2873 21.6851 10.883 21.0803 11.4687L16.9943 15.5707L21.0803 19.6727C21.6738 20.2685 21.6738 20.8642 21.0803 21.4612C20.4856 22.057 19.8922 22.057 19.2988 21.4612L15.2128 17.3592L11.1267 21.4612C10.5472 22.0709 9.95247 22.0709 9.34518 21.4612C8.73788 20.8516 8.73788 20.2545 9.34518 19.6727L13.4312 15.5707L9.34518 11.4687C8.75048 10.8742 8.75048 10.2772 9.34518 9.68013C9.93987 9.08311 10.5346 9.08311 11.1267 9.68013Z" fill="#FCCE74"/>
</svg>
