<svg width="41" height="32" viewBox="0 0 41 32" fill="none" xmlns="http://www.w3.org/2000/svg">
<path fill-rule="evenodd" clip-rule="evenodd" d="M15.9871 5.33317C15.9871 3.55584 17.0988 2.6665 19.3205 2.6665H22.6538C24.8755 2.6665 25.9871 3.55584 25.9871 5.33317H30.9871C33.2088 5.33317 34.3205 6.2225 34.3205 7.99984V10.6665C34.3205 11.9225 33.7655 12.7345 32.6538 13.1038V26.6665C32.6538 28.4438 31.5421 29.3332 29.3205 29.3332H12.6538C10.4271 29.3332 9.31548 28.4438 9.32048 26.6665V13.1038C8.20881 12.7358 7.65381 11.9238 7.65381 10.6665V7.99984C7.65381 6.2225 8.76381 5.33317 10.9855 5.33317H15.9871ZM12.6538 13.3332V26.6665H29.3205V13.3332H12.6538ZM10.9871 7.99984V10.6665H30.9871V7.99984H10.9871ZM15.9871 17.3332C15.9871 16.4572 16.5421 16.0132 17.6538 15.9998C18.7655 15.9865 19.3205 16.4318 19.3205 17.3332V22.6665C19.3205 23.5558 18.7655 23.9998 17.6538 23.9998C16.5421 23.9998 15.9871 23.5558 15.9871 22.6665V17.3332ZM22.6538 17.3332C22.6538 16.4572 23.2088 16.0132 24.3205 15.9998C25.4321 15.9865 25.9871 16.4318 25.9871 17.3332V22.6665C25.9871 23.5558 25.4321 23.9998 24.3205 23.9998C23.2088 23.9998 22.6538 23.5558 22.6538 22.6665V17.3332Z" fill="#F02532"/>
</svg>
