<svg width="25" height="25" viewBox="0 0 25 25" fill="none" xmlns="http://www.w3.org/2000/svg">
<path fill-rule="evenodd" clip-rule="evenodd" d="M13.9531 7.4548V15.0408C13.9531 15.7078 13.6201 16.0408 12.9531 16.0408C12.2861 16.0408 11.9531 15.7078 11.9531 15.0408V7.4548L8.66013 10.7478C8.56789 10.8433 8.45754 10.9195 8.33554 10.9719C8.21353 11.0243 8.08231 11.0519 7.94954 11.0531C7.81676 11.0542 7.68508 11.0289 7.56218 10.9786C7.43928 10.9283 7.32763 10.8541 7.23374 10.7602C7.13985 10.6663 7.06559 10.5547 7.01531 10.4318C6.96503 10.3089 6.93973 10.1772 6.94088 10.0444C6.94204 9.91162 6.96962 9.7804 7.02203 9.6584C7.07444 9.53639 7.15062 9.42605 7.24613 9.3338L12.2461 4.3338C12.4337 4.14633 12.688 4.04102 12.9531 4.04102C13.2183 4.04102 13.4726 4.14633 13.6601 4.3338L18.6611 9.3348C18.8433 9.5234 18.9441 9.77601 18.9418 10.0382C18.9395 10.3004 18.8344 10.5512 18.649 10.7366C18.4635 10.922 18.2127 11.0272 17.9505 11.0295C17.6883 11.0318 17.4357 10.931 17.2471 10.7488L13.9531 7.4548ZM4.95313 19.0408C4.95513 18.3738 5.28813 18.0408 5.95313 18.0408H19.9531C20.6201 18.0368 20.9531 18.3708 20.9531 19.0418C20.9531 19.7138 20.6201 20.0468 19.9531 20.0408H5.95513C5.28513 20.0408 4.95113 19.7068 4.95313 19.0408Z" fill="#3A3A47"/>
</svg>
