<svg width="33" height="33" viewBox="0 0 33 33" fill="none" xmlns="http://www.w3.org/2000/svg">
<path fill-rule="evenodd" clip-rule="evenodd" d="M16.4905 3.16699C17.1465 3.16699 17.7411 3.38966 18.2745 3.83633L29.3705 12.827C29.8078 13.2923 29.9225 13.795 29.7145 14.3363C29.5065 14.879 29.0945 15.1497 28.4785 15.1523L27.1665 15.167V27.167C27.1665 28.9443 26.2771 29.8337 24.4998 29.8337H21.8331C20.0558 29.8203 19.1665 28.9323 19.1665 27.167V19.167H13.8331V27.1483C13.8331 28.9137 12.9438 29.8017 11.1665 29.815H8.49981C6.72248 29.8283 5.83314 28.9443 5.83314 27.167L5.82781 15.167L4.45714 15.1523C3.81314 15.1523 3.40914 14.8803 3.24248 14.3363C3.07581 13.7937 3.18514 13.2883 3.57048 12.8217L14.7065 3.83633C15.2398 3.38966 15.8358 3.16699 16.4905 3.16699ZM8.49981 12.5003V27.167H11.1665V19.167C11.1665 17.3897 12.0558 16.5003 13.8331 16.5003H19.1665C20.9438 16.5003 21.8331 17.3897 21.8331 19.167V27.167H24.4971V12.5003L16.4998 6.39233L8.49981 12.5003Z" fill="#0069D0"/>
</svg>
