<svg width="33" height="33" viewBox="0 0 33 33" fill="none" xmlns="http://www.w3.org/2000/svg">
<path fill-rule="evenodd" clip-rule="evenodd" d="M27.166 18.9998V17.9331V14.7331V13.6678H7.96602L5.83268 13.6664V18.9998H27.166ZM27.166 10.9998V9.93309V6.73309V5.66776H7.96602L5.83268 5.66642V10.9998H27.166ZM5.83268 2.99976H27.1527C28.9394 2.99976 29.8327 3.89042 29.8327 5.66642V26.8931C29.8327 28.7424 28.9433 29.6664 27.166 29.6664H5.83268C4.05535 29.6664 3.16602 28.7424 3.16602 26.8931V5.66642C3.16602 3.88909 4.05535 2.99976 5.83268 2.99976ZM7.96602 21.6664H5.83268V26.9998H27.166V25.9331V22.7331V21.6678H7.96602V21.6664ZM8.49935 9.66642C8.14573 9.66642 7.80659 9.52595 7.55654 9.2759C7.30649 9.02585 7.16602 8.68671 7.16602 8.33309C7.16602 7.97947 7.30649 7.64033 7.55654 7.39028C7.80659 7.14023 8.14573 6.99976 8.49935 6.99976C8.85297 6.99976 9.19211 7.14023 9.44216 7.39028C9.69221 7.64033 9.83268 7.97947 9.83268 8.33309C9.83268 8.68671 9.69221 9.02585 9.44216 9.2759C9.19211 9.52595 8.85297 9.66642 8.49935 9.66642ZM8.49935 17.6664C8.14573 17.6664 7.80659 17.5259 7.55654 17.2759C7.30649 17.0259 7.16602 16.6867 7.16602 16.3331C7.16602 15.9795 7.30649 15.6403 7.55654 15.3903C7.80659 15.1402 8.14573 14.9998 8.49935 14.9998C8.85297 14.9998 9.19211 15.1402 9.44216 15.3903C9.69221 15.6403 9.83268 15.9795 9.83268 16.3331C9.83268 16.6867 9.69221 17.0259 9.44216 17.2759C9.19211 17.5259 8.85297 17.6664 8.49935 17.6664ZM8.49935 25.6664C8.14573 25.6664 7.80659 25.5259 7.55654 25.2759C7.30649 25.0259 7.16602 24.6867 7.16602 24.3331C7.16602 23.9795 7.30649 23.6403 7.55654 23.3903C7.80659 23.1402 8.14573 22.9998 8.49935 22.9998C8.85297 22.9998 9.19211 23.1402 9.44216 23.3903C9.69221 23.6403 9.83268 23.9795 9.83268 24.3331C9.83268 24.6867 9.69221 25.0259 9.44216 25.2759C9.19211 25.5259 8.85297 25.6664 8.49935 25.6664Z" fill="#007AF0"/>
</svg>
