<svg width="32" height="32" viewBox="0 0 32 32" fill="none" xmlns="http://www.w3.org/2000/svg">
<path d="M18.6673 2.91482C19.058 3.10949 19.5007 3.47082 19.9953 3.99882L25.338 9.34015C25.9073 9.84682 26.2713 10.2895 26.43 10.6695C26.5886 11.0495 26.6673 11.4935 26.6673 12.0028V26.6695C26.6673 28.4468 25.778 29.3362 24.0007 29.3362H8.00332C6.22332 29.3375 5.33398 28.4482 5.33398 26.6695V5.33615C5.33398 3.55882 6.22332 2.66949 8.00065 2.66949H17.3287C17.406 2.66949 18.0807 2.62282 18.6673 2.91482ZM8.00065 26.6695H24.002L24.0007 13.3362H18.6673C17.9601 13.3362 17.2818 13.0552 16.7817 12.5551C16.2816 12.055 16.0007 11.3767 16.0007 10.6695V5.33615H8.00065V26.6695ZM18.6673 6.66949V10.6695H22.6673L18.6673 6.66949ZM12.0007 18.6695C11.1113 18.6695 10.6673 18.2255 10.6673 17.3362C10.6673 16.4468 11.1127 16.0028 12.002 16.0028H20.0007C20.89 16.0028 21.334 16.4468 21.334 17.3362C21.334 18.2255 20.89 18.6695 20.0007 18.6695H12.0007ZM12.0007 13.3362C11.1113 13.3362 10.6673 12.8922 10.6673 12.0028C10.6673 11.1135 11.1127 10.6695 12.002 10.6695H13.334C14.2233 10.6695 14.6673 11.1135 14.6673 12.0028C14.6673 12.8922 14.2233 13.3362 13.334 13.3362H12.0007ZM12.0007 24.0028C11.1113 24.0028 10.6673 23.5588 10.6673 22.6695C10.6673 21.7802 11.1113 21.3362 12.0007 21.3362H20.0007C20.89 21.3362 21.334 21.7802 21.334 22.6695C21.334 23.5588 20.89 24.0028 20.0007 24.0028H12.0007Z" fill="#3A3A47"/>
</svg>
