<svg width="40" height="40" viewBox="0 0 40 40" fill="none" xmlns="http://www.w3.org/2000/svg">
<circle cx="20" cy="20" r="20" fill="#0069D0"/>
<path fill-rule="evenodd" clip-rule="evenodd" d="M15.3327 19.3337H19.3327V15.3337C19.3253 14.889 19.5473 14.667 19.9993 14.667C20.4513 14.667 20.6733 14.889 20.666 15.3337V19.3337H24.666C25.1107 19.3337 25.3327 19.5557 25.3327 20.0003C25.3327 20.445 25.1107 20.667 24.666 20.667H20.666V24.667C20.676 25.1117 20.454 25.3337 19.9993 25.3337C19.5447 25.3337 19.3227 25.1117 19.3327 24.667V20.667H15.3327C14.888 20.667 14.666 20.4457 14.666 20.0003C14.666 19.555 14.888 19.3337 15.3327 19.3337Z" fill="white"/>
</svg>
