<svg width="24" height="24" viewBox="0 0 24 24" fill="none" xmlns="http://www.w3.org/2000/svg">
<path d="M11.947 6.00007C11.9663 5.99998 11.9857 5.99998 12.005 6.00007C15.008 5.99807 18.168 7.52007 21.365 10.5481C21.365 10.5481 21.995 11.0701 21.995 12.0001C21.995 12.9301 21.387 13.4301 21.387 13.4301C18.209 16.4471 15.063 17.9651 12.084 18.0001H12.03C12.0183 18.0001 12.0067 18.0001 11.995 18.0001C8.991 18.0051 5.853 16.4831 2.651 13.4491C2.651 13.4491 2 12.9301 2 12.0001C2 11.0701 2.654 10.5481 2.654 10.5481C5.838 7.53207 8.956 6.02107 11.947 6.00007ZM6.342 9.99807C5.50587 10.5976 4.72236 11.2674 4 12.0001C4.78 12.7811 5.561 13.4481 6.342 14.0001C6.1151 13.3577 5.99944 12.6813 6 12.0001C6 11.2981 6.12 10.6241 6.342 9.99807ZM17.66 10.0041C17.88 10.6291 18 11.3001 18 12.0001C18 12.6991 17.88 13.3701 17.66 13.9941C18.4934 13.3964 19.2749 12.7294 19.996 12.0001C19.2755 11.27 18.4943 10.6022 17.661 10.0041H17.66ZM12 16.0001C13.0609 16.0001 14.0783 15.5786 14.8284 14.8285C15.5786 14.0784 16 13.0609 16 12.0001C16 10.9392 15.5786 9.92179 14.8284 9.17164C14.0783 8.4215 13.0609 8.00007 12 8.00007C10.9391 8.00007 9.92172 8.4215 9.17157 9.17164C8.42143 9.92179 8 10.9392 8 12.0001C8 13.0609 8.42143 14.0784 9.17157 14.8285C9.92172 15.5786 10.9391 16.0001 12 16.0001ZM11.995 14.0001C11.7323 13.9999 11.4722 13.9481 11.2295 13.8474C10.9869 13.7468 10.7664 13.5993 10.5807 13.4134C10.3951 13.2276 10.2478 13.007 10.1474 12.7642C10.047 12.5214 9.99537 12.2613 9.9955 11.9986C9.99563 11.7359 10.0475 11.4757 10.1482 11.2331C10.2488 10.9904 10.3963 10.77 10.5821 10.5843C10.768 10.3986 10.9886 10.2514 11.2314 10.151C11.4741 10.0506 11.7343 9.99894 11.997 9.99907C12.5276 9.99933 13.0363 10.2104 13.4113 10.5857C13.7863 10.9611 13.9968 11.47 13.9965 12.0006C13.9962 12.5311 13.7852 13.0399 13.4099 13.4148C13.0345 13.7898 12.5256 14.0003 11.995 14.0001Z" fill="#24252E"/>
</svg>
