<svg width="24" height="24" viewBox="0 0 24 24" fill="none" xmlns="http://www.w3.org/2000/svg">
<path fill-rule="evenodd" clip-rule="evenodd" d="M8.07142 6.65687L12.3144 10.8989L16.5564 6.65687C17.0204 6.17687 17.4914 6.17687 17.9714 6.65687C18.4514 7.13687 18.4514 7.60688 17.9714 8.07088L13.7284 12.3139L17.9714 16.5559C18.4424 17.0279 18.4424 17.4989 17.9714 17.9709C17.4994 18.4419 17.0284 18.4419 16.5564 17.9709L12.3144 13.7279L8.07042 17.9699C7.61042 18.4519 7.13842 18.4519 6.65642 17.9699C6.17442 17.4869 6.17442 17.0159 6.65642 16.5549L10.8984 12.3129L6.65742 8.06987C6.18542 7.59987 6.18542 7.12788 6.65742 6.65588C7.12942 6.18388 7.60042 6.18388 8.07142 6.65588V6.65687Z" fill="#3A3A47"/>
</svg>
