<svg width="32" height="32" viewBox="0 0 32 32" fill="none" xmlns="http://www.w3.org/2000/svg">
<path fill-rule="evenodd" clip-rule="evenodd" d="M19.1147 20.0003C19.2041 19.783 19.3067 19.5603 19.4214 19.327C19.6041 18.9577 19.8134 18.575 20.1014 18.071C20.1681 17.9577 20.6841 17.0657 20.8347 16.799C22.1001 14.5737 22.6667 13.035 22.6667 11.3337C22.6667 7.80299 19.6947 5.33366 15.9961 5.33366C12.2974 5.33366 9.33341 7.80033 9.33341 11.3337C9.33341 13.0337 9.89608 14.5537 11.1587 16.771C11.3027 17.0243 11.8041 17.887 11.8921 18.0403C12.1787 18.5417 12.3881 18.927 12.5721 19.3003C12.6907 19.5417 12.7961 19.775 12.8881 20.0003H19.1147ZM18.6507 22.667H13.3401C13.4067 25.8203 14.0227 26.6537 15.9961 26.6537C17.9814 26.6537 18.5854 25.8457 18.6507 22.667ZM25.3334 11.3337C25.3334 13.607 24.6267 15.5217 23.1547 18.115C21.3774 21.2457 21.3241 21.355 21.3241 22.031C21.3241 27.0203 19.9441 29.3217 15.9961 29.3217C12.0574 29.3203 10.6667 26.991 10.6667 22.031C10.6667 21.3217 10.5801 21.1457 8.84141 18.091C7.36808 15.5043 6.66675 13.6083 6.66675 11.3337C6.66675 6.20699 10.9227 2.66699 15.9961 2.66699C21.0707 2.66699 25.3334 6.21099 25.3334 11.3337ZM20.0041 13.3337C18.6747 13.3337 18.6667 12.0003 18.6667 12.0003C18.6667 10.5003 17.4401 9.33233 15.9974 9.33233C15.9974 9.33233 14.6654 9.33233 14.6654 8.00033C14.6654 6.66833 15.9987 6.66699 15.9987 6.66699C17.4132 6.66699 18.7698 7.2289 19.77 8.22909C20.7702 9.22928 21.3321 10.5858 21.3321 12.0003C21.3321 12.0003 21.3321 13.3337 20.0027 13.3337H20.0041Z" fill="#3A3A47"/>
</svg>
