<svg width="32" height="32" viewBox="0 0 32 32" fill="none" xmlns="http://www.w3.org/2000/svg">
<path d="M6.66659 10.6667C5.77725 10.6667 5.33325 10.2227 5.33325 9.33333C5.33325 8.444 5.77725 8 6.66659 8H25.3333C26.2226 8 26.6666 8.444 26.6666 9.33333C26.6666 10.2227 26.2226 10.6667 25.3333 10.6667H6.66659ZM6.66659 24C5.77725 24 5.33325 23.556 5.33325 22.6667C5.33325 21.7773 5.77725 21.3333 6.66659 21.3333H25.3333C26.2226 21.3333 26.6666 21.776 26.6666 22.6667C26.6666 23.5573 26.2226 24 25.3333 24H6.66659ZM6.66659 17.3333C5.77725 17.3333 5.33325 16.888 5.33325 15.9973C5.33325 15.1053 5.77725 14.6627 6.66659 14.6667H25.3333C26.2226 14.6667 26.6666 15.1107 26.6666 16C26.6666 16.8893 26.2226 17.3333 25.3333 17.3333H6.66659Z" fill="#3A3A47"/>
</svg>
