<svg width="512" height="32" viewBox="0 0 512 32" fill="none" xmlns="http://www.w3.org/2000/svg">
<rect x="1" y="31" width="510" height="1" fill="#D3D4DD"/>
<path fill-rule="evenodd" clip-rule="evenodd" d="M141.333 16C142.429 16 143.333 16.8893 143.333 18.0153C143.333 19.1413 142.401 20 141.333 20C140.266 20 139.333 19.3327 139.333 17.3527C139.333 14.356 140.222 12.572 142 12H143.333C140.683 13.3233 141.165 16 141.333 16ZM146.667 16C147.763 16 148.667 16.8893 148.667 18.0153C148.667 19.1413 147.734 20 146.667 20C145.599 20 144.667 19.3327 144.667 17.3527C144.667 14.356 145.555 12.572 147.333 12H148.667C146.016 13.3233 146.498 16 146.667 16Z" fill="#696979"/>
<path fill-rule="evenodd" clip-rule="evenodd" d="M112.286 16.6665H107.333C106.889 16.6685 106.667 16.4465 106.667 15.9998C106.667 15.5532 106.889 15.3312 107.333 15.3332H109.762C109.704 15.2765 109.649 15.2171 109.597 15.1552C109.197 14.6798 108.997 14.0658 108.997 13.3138C108.997 12.5045 109.292 11.8612 109.883 11.3832C110.475 10.9052 111.254 10.6665 112.221 10.6665C113.229 10.6665 114.156 10.8605 115.003 11.2485C115.293 11.4252 115.392 11.6785 115.3 12.0078C115.209 12.3365 114.978 12.4572 114.609 12.3698C113.744 12.0005 112.939 11.8165 112.193 11.8165C111.595 11.8165 111.127 11.9485 110.788 12.2138C110.45 12.4785 110.281 12.8498 110.281 13.3278C110.281 13.6685 110.346 13.9512 110.477 14.1758C110.609 14.4005 110.82 14.6052 111.113 14.7898C111.368 14.9512 111.751 15.1325 112.261 15.3332H116.667C117.112 15.3312 117.334 15.5532 117.333 15.9998C117.333 16.4465 117.111 16.6685 116.667 16.6665H114.636C114.777 16.8238 114.893 16.9918 114.983 17.1705C115.157 17.5185 115.245 17.9338 115.245 18.4165C115.245 19.3198 114.927 20.0318 114.291 20.5525C113.657 21.0725 112.773 21.3332 111.641 21.3332C110.575 21.3332 109.725 21.2038 109.091 20.9452C109.012 20.9132 108.582 20.6398 108.681 20.1465C108.781 19.6532 109.183 19.7265 109.349 19.7852C109.64 19.8872 109.947 19.9718 110.27 20.0418C110.779 20.1505 111.254 20.2045 111.696 20.2045C112.451 20.2045 113.019 20.0558 113.401 19.7578C113.783 19.4598 113.975 19.0505 113.975 18.5298C113.975 18.1845 113.905 17.9005 113.767 17.6785C113.629 17.4558 113.398 17.2478 113.073 17.0538C112.873 16.9345 112.611 16.8052 112.286 16.6665Z" fill="#696979"/>
<path fill-rule="evenodd" clip-rule="evenodd" d="M82.6645 10.6665C83.1085 10.6652 83.3312 10.8865 83.3312 11.3292V14.6638C83.3312 15.3438 83.3312 18.6672 80.0225 18.6665C76.7132 18.6665 76.6665 15.7165 76.6665 14.6625V11.3292C76.6652 10.8872 76.8865 10.6665 77.3312 10.6665C77.7752 10.6665 77.9978 10.8872 77.9978 11.3292V14.6638C77.9978 15.3732 78.0445 17.3338 80.0225 17.3338C81.9998 17.3338 81.9998 15.3765 81.9998 14.6625V11.3332C81.9985 10.8898 82.2198 10.6678 82.6645 10.6665ZM74.6665 20.6665C74.6665 20.2218 74.8885 19.9998 75.3332 19.9998H84.6665C85.1112 19.9998 85.3332 20.2218 85.3332 20.6665C85.3332 21.1112 85.1112 21.3332 84.6665 21.3332H75.3332C74.8885 21.3332 74.6665 21.1112 74.6665 20.6665Z" fill="#696979"/>
<path fill-rule="evenodd" clip-rule="evenodd" d="M48.6667 21.3332H44.6667C44.2227 21.3332 44 21.1112 44 20.6672C44 20.2238 44.2227 20.0012 44.6667 19.9998H46L48.6667 11.9998H47.3333C46.892 11.9998 46.6707 11.7772 46.6707 11.3332C46.6707 10.8878 46.892 10.6665 47.334 10.6665H51.3367C51.7787 10.6932 52 10.9158 52 11.3332C52 11.7498 51.7787 11.9718 51.3367 11.9998H50.0013L47.3333 19.9998H48.6667C49.112 19.9998 49.3347 20.2232 49.3347 20.6672C49.3347 21.1118 49.112 21.3338 48.6667 21.3325V21.3332Z" fill="#696979"/>
<path fill-rule="evenodd" clip-rule="evenodd" d="M12.6665 19.3348V12.6742C12.6665 11.7808 13.1118 11.3335 14.0032 11.3335H15.8345C16.4292 11.3335 16.9358 11.3935 17.3532 11.5128C17.7712 11.6328 18.1118 11.8008 18.3758 12.0195C18.6398 12.2368 18.8318 12.5015 18.9518 12.8128C19.0718 13.1248 19.1318 13.4728 19.1318 13.8575C19.1318 14.0668 19.1052 14.2682 19.0492 14.4628C18.9933 14.6584 18.9055 14.8433 18.7892 15.0102C18.6637 15.1886 18.5102 15.3455 18.3345 15.4748C18.1492 15.6135 17.9265 15.7348 17.6665 15.8368C18.2338 15.9862 18.6532 16.2288 18.9252 16.5635C19.1972 16.8988 19.3332 17.3295 19.3332 17.8548C19.3332 18.2515 19.2625 18.6215 19.1198 18.9628C18.9785 19.3048 18.7705 19.6028 18.4972 19.8562C18.2232 20.1108 17.8852 20.3095 17.4838 20.4522C17.0812 20.5955 16.6225 20.6668 16.1065 20.6668H14.0098C13.1145 20.6668 12.6665 20.2228 12.6665 19.3348ZM14.6638 16.7082V19.0335H16.0705C16.3345 19.0335 16.5505 18.9968 16.7178 18.9242C16.8852 18.8522 17.0165 18.7575 17.1112 18.6428C17.2058 18.5275 17.2705 18.3968 17.3058 18.2515C17.3412 18.1068 17.3592 17.9595 17.3592 17.8095C17.3592 17.6388 17.3385 17.4855 17.2972 17.3488C17.2585 17.2162 17.1848 17.0965 17.0838 17.0022C16.9838 16.9088 16.8505 16.8355 16.6852 16.7848C16.5198 16.7335 16.3112 16.7082 16.0585 16.7082H14.6645H14.6638ZM14.6638 15.2602H15.7038C15.9252 15.2602 16.1238 15.2435 16.3012 15.2088C16.4785 15.1755 16.6292 15.1155 16.7532 15.0295C16.8795 14.9416 16.978 14.8195 17.0372 14.6775C17.1018 14.5282 17.1345 14.3402 17.1345 14.1135C17.1345 13.8915 17.1092 13.7068 17.0578 13.5602C17.013 13.4221 16.9311 13.299 16.8212 13.2042C16.7034 13.109 16.5647 13.0432 16.4165 13.0122C16.2253 12.9708 16.0301 12.9513 15.8345 12.9542H14.6638V15.2608V15.2602Z" fill="#696979"/>
</svg>
