<svg width="24" height="24" viewBox="0 0 24 24" fill="none" xmlns="http://www.w3.org/2000/svg">
<path fill-rule="evenodd" clip-rule="evenodd" d="M14.6049 13.1941L21.6049 20.1921C21.7871 20.3807 21.8879 20.6333 21.8856 20.8955C21.8833 21.1577 21.7781 21.4085 21.5927 21.5939C21.4073 21.7793 21.1565 21.8845 20.8943 21.8868C20.6321 21.8891 20.3795 21.7883 20.1909 21.6061H20.1899L13.1929 14.6061C11.7757 15.6663 10.0095 16.1503 8.24981 15.9607C6.49012 15.7711 4.86758 14.9219 3.70877 13.5842C2.54997 12.2464 1.94093 10.5193 2.00424 8.75057C2.06755 6.98183 2.79852 5.30272 4.05001 4.05123C5.3015 2.79974 6.98061 2.06877 8.74935 2.00546C10.5181 1.94215 12.2452 2.55119 13.5829 3.71C14.9207 4.8688 15.7699 6.49134 15.9595 8.25103C16.1491 10.0107 15.6651 11.7769 14.6049 13.1941ZM8.9999 14.0001C10.326 14.0001 11.5978 13.4733 12.5354 12.5357C13.4731 11.598 13.9999 10.3262 13.9999 9.00012C13.9999 7.67404 13.4731 6.40227 12.5354 5.46459C11.5978 4.5269 10.326 4.00012 8.9999 4.00012C7.67382 4.00012 6.40205 4.5269 5.46437 5.46459C4.52668 6.40227 3.9999 7.67404 3.9999 9.00012C3.9999 10.3262 4.52668 11.598 5.46437 12.5357C6.40205 13.4733 7.67382 14.0001 8.9999 14.0001Z" fill="#24252E"/>
</svg>
