<svg width="32" height="32" viewBox="0 0 32 32" fill="none" xmlns="http://www.w3.org/2000/svg">
<path d="M15.9993 17.9998C19.5563 17.9998 21.334 20.2221 21.3327 24.6665C21.3327 26.4443 20.4438 27.3332 18.666 27.3332H5.33268C3.5549 27.3332 2.66602 26.4443 2.66602 24.6665C2.66602 20.2221 4.44545 17.9998 8.00433 17.9998H15.9993ZM23.9993 17.9998C27.5563 17.9998 29.334 20.2221 29.3327 24.6665C29.3327 26.4443 28.4438 27.3332 26.666 27.3332H22.6871C23.5619 27.3332 23.9993 25.9998 23.9993 23.3332C23.9993 21.0381 23.1105 19.2603 21.3327 17.9998H23.9993ZM15.9993 20.6665H8.00433C6.29447 20.6665 5.40535 21.8953 5.33696 24.3529L5.33268 24.6665H18.666C18.666 21.9998 17.7771 20.6665 15.9993 20.6665ZM23.3327 8.6665C25.1735 8.6665 26.666 10.159 26.666 11.9998C26.666 13.8407 25.1735 15.3332 23.3327 15.3332C21.4918 15.3332 19.9993 13.8407 19.9993 11.9998C19.9993 10.159 21.4918 8.6665 23.3327 8.6665ZM11.9993 4.6665C14.9447 4.6665 17.3327 7.0545 17.3327 9.99984C17.3327 12.9452 14.9447 15.3332 11.9993 15.3332C9.05402 15.3332 6.66602 12.9452 6.66602 9.99984C6.66602 7.0545 9.05402 4.6665 11.9993 4.6665ZM11.9993 7.33317C10.5267 7.33317 9.33268 8.52717 9.33268 9.99984C9.33268 11.4725 10.5267 12.6665 11.9993 12.6665C13.472 12.6665 14.666 11.4725 14.666 9.99984C14.666 8.52717 13.472 7.33317 11.9993 7.33317Z" fill="#007AF0"/>
</svg>
