<svg width="32" height="32" viewBox="0 0 32 32" fill="none" xmlns="http://www.w3.org/2000/svg">
<path fill-rule="evenodd" clip-rule="evenodd" d="M22.6667 9.33341C22.6667 11.1015 21.9643 12.7972 20.7141 14.0475C19.4638 15.2977 17.7681 16.0001 16 16.0001C14.2319 16.0001 12.5362 15.2977 11.286 14.0475C10.0357 12.7972 9.33335 11.1015 9.33335 9.33341C9.33335 7.5653 10.0357 5.86961 11.286 4.61937C12.5362 3.36913 14.2319 2.66675 16 2.66675C17.7681 2.66675 19.4638 3.36913 20.7141 4.61937C21.9643 5.86961 22.6667 7.5653 22.6667 9.33341V9.33341ZM20 9.33341C20 8.27255 19.5786 7.25513 18.8284 6.50499C18.0783 5.75484 17.0609 5.33341 16 5.33341C14.9392 5.33341 13.9217 5.75484 13.1716 6.50499C12.4214 7.25513 12 8.27255 12 9.33341C12 10.3943 12.4214 11.4117 13.1716 12.1618C13.9217 12.912 14.9392 13.3334 16 13.3334C17.0609 13.3334 18.0783 12.912 18.8284 12.1618C19.5786 11.4117 20 10.3943 20 9.33341ZM2.66669 26.6667C2.66669 21.3334 5.33469 18.6667 10.672 18.6667H21.3334C26.6667 18.6667 29.3334 21.3334 29.3334 26.6667C29.3334 28.4441 28.444 29.3334 26.6667 29.3334H5.33335C3.55602 29.3334 2.66669 28.4441 2.66669 26.6667ZM10.6667 21.3334C7.11069 21.3334 5.33335 23.1107 5.33335 26.6667H26.6667C26.6667 23.1107 24.8894 21.3334 21.3334 21.3334H10.6667Z" fill="#0069D0"/>
</svg>
